<?xml version="1.0" standalone="no"?><!DOCTYPE svg PUBLIC "-//W3C//DTD SVG 1.1//EN" "http://www.w3.org/Graphics/SVG/1.1/DTD/svg11.dtd"><svg t="1530594351837" class="icon" style="" viewBox="0 0 1024 1024" version="1.1" xmlns="http://www.w3.org/2000/svg" p-id="1150" xmlns:xlink="http://www.w3.org/1999/xlink" width="48" height="48"><defs><style type="text/css"></style></defs><path d="M853.562591 556.397781 534.988868 556.397781c-10.9991 0-19.912226 8.922857-19.912226 19.917091L515.076641 894.888596c0 10.9991 8.913126 19.912226 19.912226 19.912226l318.573723 0c10.994234 0 19.917091-8.913126 19.917091-19.912226L873.479682 576.314872C873.479682 565.320638 864.556825 556.397781 853.562591 556.397781L853.562591 556.397781zM833.650365 874.971505 554.905959 874.971505 554.905959 596.227099l278.744406 0L833.650365 874.971505 833.650365 874.971505zM418.07098 556.397781 99.497257 556.397781c-10.989369 0-19.912226 8.922857-19.912226 19.917091L79.585031 894.888596c0 10.9991 8.922857 19.912226 19.912226 19.912226l318.573723 0c11.003965 0 19.917091-8.913126 19.917091-19.912226L437.988072 576.314872C437.988072 565.320638 429.074945 556.397781 418.07098 556.397781L418.07098 556.397781zM398.158754 874.971505 119.414348 874.971505 119.414348 596.227099l278.744406 0L398.158754 874.971505 398.158754 874.971505zM418.07098 118.716811 99.497257 118.716811c-10.989369 0-19.912226 8.913126-19.912226 19.917091l0 318.559128c0 11.003965 8.922857 19.917091 19.912226 19.917091l318.573723 0c11.003965 0 19.917091-8.913126 19.917091-19.917091L437.988072 138.633902C437.988072 127.629937 429.074945 118.716811 418.07098 118.716811L418.07098 118.716811zM398.158754 437.280804 119.414348 437.280804 119.414348 158.546128l278.744406 0L398.158754 437.280804 398.158754 437.280804zM938.580292 276.489366 729.922153 67.834876c-3.729209-3.734075-8.798793-5.834643-14.077583-5.834643-5.28852 0-10.343508 2.100569-14.087313 5.834643L493.102768 276.489366c-7.779525 7.778308-7.779525 20.392669 0 28.169761l208.653273 208.654489c3.890979 3.882464 8.989754 5.834643 14.087313 5.834643 5.089045 0 10.186604-1.950963 14.077583-5.834643l208.659355-208.654489c3.729209-3.734075 5.834643-8.803658 5.834643-14.077583C944.414935 285.29424 942.310717 280.224656 938.580292 276.489366L938.580292 276.489366zM715.843354 471.066272 535.350112 290.581544 715.843354 110.084652l180.484728 180.496892L715.843354 471.066272 715.843354 471.066272zM715.843354 471.066272" p-id="1151"></path></svg>