<?xml version="1.0" standalone="no"?><!DOCTYPE svg PUBLIC "-//W3C//DTD SVG 1.1//EN" "http://www.w3.org/Graphics/SVG/1.1/DTD/svg11.dtd"><svg t="1527412690775" class="icon" style="" viewBox="0 0 1024 1024" version="1.1" xmlns="http://www.w3.org/2000/svg" p-id="6100" xmlns:xlink="http://www.w3.org/1999/xlink" width="32" height="32"><defs><style type="text/css"></style></defs><path d="M416 896H288c-59.8 0-116.1-23.3-158.4-65.6C87.3 788.1 64 731.8 64 672s23.3-116.1 65.6-158.4C171.9 471.3 228.2 448 288 448c17.7 0 32-14.3 32-32v-0.4c0-76.9 30-149.3 84.4-203.6s126.7-84.4 203.6-84.4c46.2 0 90.4 10.6 131.2 31.5 39 20 73.5 49.1 99.7 84.3 10.6 14.2 30.6 17.1 44.8 6.5 14.2-10.6 17.1-30.6 6.5-44.8-32.1-43-74.2-78.6-121.8-103C719.1 76.9 663.7 63.6 608 63.6c-47.5 0-93.6 9.3-137 27.7-41.9 17.7-79.6 43.1-111.9 75.4s-57.7 70-75.4 111.9c-14.5 34.2-23.3 70.1-26.4 107-65.3 6.9-125.8 35.7-172.9 82.7C30 522.7 0 595.1 0 672s30 149.3 84.4 203.6C138.7 930 211.1 960 288 960h128c17.7 0 32-14.3 32-32s-14.3-32-32-32z" p-id="6101" fill="#DF472F"></path><path d="M960 384H576c-35.3 0-64 28.7-64 64v512c0 35.3 28.7 64 64 64h384c35.3 0 64-28.7 64-64V448c0-35.3-28.7-64-64-64z m0 576H576V832h384v128z m0-192H576V640h384v128z m0-192H576V447.9v0.1h384v-0.1V576z" p-id="6102" fill="#DF472F"></path><path d="M864 512m-32 0a32 32 0 1 0 64 0 32 32 0 1 0-64 0Z" p-id="6103" fill="#DF472F"></path><path d="M864 704m-32 0a32 32 0 1 0 64 0 32 32 0 1 0-64 0Z" p-id="6104" fill="#DF472F"></path><path d="M864 896m-32 0a32 32 0 1 0 64 0 32 32 0 1 0-64 0Z" p-id="6105" fill="#DF472F"></path></svg>