<?xml version="1.0" standalone="no"?><!DOCTYPE svg PUBLIC "-//W3C//DTD SVG 1.1//EN" "http://www.w3.org/Graphics/SVG/1.1/DTD/svg11.dtd"><svg t="1527412751777" class="icon" style="" viewBox="0 0 1081 1024" version="1.1" xmlns="http://www.w3.org/2000/svg" p-id="7099" xmlns:xlink="http://www.w3.org/1999/xlink" width="33.78125" height="32"><defs><style type="text/css"></style></defs><path d="M946.020267 150.693756L804.787323 9.459548c-19.707392-19.707392-50.910343-19.707392-68.974611 0l-205.283232 205.283233c-19.707392 19.707392-19.707392 50.910343 0 68.975874l55.835927 55.835927-27.919226 27.919227-18.064268-18.064267c-26.276102-26.276102-60.764039-37.772923-93.608851-37.772923-44.341633-36.129798-101.820686-41.056647-134.666761-8.210572-32.844812 32.844812-27.917964 90.323865 8.211835 134.665498 0 34.487937 11.495558 67.332749 37.77166 93.610114l18.064268 18.064267-27.917964 27.916701-55.837191-55.835928c-19.707392-19.706129-50.90908-19.706129-68.974611 0l-205.283232 205.283233c-19.707392 19.707392-19.707392 50.911606 0 68.975874L159.37401 937.341276c19.707392 19.707392 50.910343 19.707392 68.975873 0l205.283233-205.283233c19.707392-19.707392 19.707392-50.911606 0-68.975873l-47.626619-47.625357 27.919227-27.917964 62.4059 62.404638c16.422406-37.770397 42.698508-75.542057 75.542058-108.388132 32.846075-32.844812 70.617735-59.120914 108.389395-75.543321l-62.405901-62.4059 27.917964-27.919227 47.62662 47.626619c19.707392 19.707392 50.910343 19.707392 68.975873 0l205.283233-205.283233c18.064268-18.064268 18.064268-49.268481-1.643125-67.332748v-0.003789h0.002526z" p-id="7100"></path><path d="M898.396174 505.42303c-3.284986-3.284986-8.211834-6.56871-11.496821-8.210571 0 0-1.641862 0-1.641862-1.641862-3.286249-1.641862-4.926848-3.284986-8.210571-4.926848h-1.643125c-80.471431-44.341633-205.28197-13.138683-297.248959 78.827044-93.608851 93.608851-123.16994 216.780054-78.828307 297.250222 1.641862 3.283723 3.284986 4.924322 4.926848 8.210571 0 0 0 1.641862 1.641862 1.641862 3.283723 4.926848 6.56871 8.211834 8.210572 11.498084 34.487937 22.991116 111.674382-6.569973 193.787674-72.26086l-41.056646-32.844812c-49.268481 39.414785-88.682003 60.764039-100.177561 50.910343-14.780544-14.780544 34.487937-88.682003 110.031257-164.226586 75.544583-75.544583 149.446042-124.811801 164.226586-110.031257 9.853696 9.852433-8.210572 44.34037-42.698508 88.680739l32.846075 41.056647c62.405901-78.828307 90.322602-151.089167 67.331486-183.932716z" p-id="7101"></path><path d="M701.323513 725.486807c-13.136157-9.853696-13.136157-27.919227-1.641862-39.414784l4.926848-4.926849c11.495558-11.496821 29.561089-9.853696 39.414785 1.643125l44.341633 54.192803c9.852433 13.138683 9.852433 32.847338-1.643125 44.341633l14.780544-14.780544c-11.495558 11.496821-31.20295 13.13742-44.341633 1.641862l-55.834664-42.698509-0.002526 0.001263z" p-id="7102"></path><path d="M807.611325 747.624155c-20.905951 0-38.314737 17.407523-39.480459 37.165434 0 20.905951 16.25822 37.164171 39.480459 37.164172 20.905951 0 39.480459-16.25822 39.480459-37.164172-1.14804-22.071673-18.571982-37.165434-39.480459-37.165434z" p-id="7103"></path><path d="M905.160644 747.624155c0 34.849146-13.943195 67.35043-40.647444 91.737129-25.55242 25.553683-59.219426 38.331156-96.400016 38.331156v53.423654c106.846045 0 191.619154-82.441665 192.784876-183.490676h-55.737416v-0.001263z" p-id="7104"></path><path d="M1003.863055 746.474852c0 123.086584-105.680324 224.119175-235.729663 224.119175V1024c160.252018 0 291.468343-124.253568 291.468342-277.541567h-55.738679v0.016419z" p-id="7105"></path></svg>