<?xml version="1.0" encoding="iso-8859-1"?>
<!-- Generator: Adobe Illustrator 15.0.0, SVG Export Plug-In . SVG Version: 6.00 Build 0)  -->
<!DOCTYPE svg PUBLIC "-//W3C//DTD SVG 1.1//EN" "http://www.w3.org/Graphics/SVG/1.1/DTD/svg11.dtd">
<svg version="1.1" id="&#x56FE;&#x5C42;_1" xmlns="http://www.w3.org/2000/svg" xmlns:xlink="http://www.w3.org/1999/xlink" x="0px"
	 y="0px" width="612px" height="792px" viewBox="0 0 612 792" style="enable-background:new 0 0 612 792;" xml:space="preserve">
<g>
	<g>
		<defs>
			<rect id="SVGID_1_" x="-104" y="12" width="819.84" height="769.92"/>
		</defs>
		<clipPath id="SVGID_2_">
			<use xlink:href="#SVGID_1_"  style="overflow:visible;"/>
		</clipPath>
		<path style="clip-path:url(#SVGID_2_);" d="M228.681,678.562H126.278c-47.839,0-92.878-18.641-126.718-52.48
			c-33.84-33.839-52.481-78.882-52.481-126.722c0-47.841,18.641-92.88,52.481-126.719c33.84-33.84,78.879-52.48,126.718-52.48
			c14.161,0,25.602-11.442,25.602-25.598v-0.32c0-61.524,24-119.442,67.52-162.883c43.519-43.438,101.359-67.52,162.878-67.52
			c36.961,0,72.32,8.481,104.961,25.199c31.199,16,58.801,39.282,79.762,67.442c8.48,11.359,24.48,13.68,35.84,5.199
			c11.359-8.479,13.68-24.479,5.199-35.84c-25.68-34.398-59.359-62.879-97.441-82.398c-39.438-20.16-83.758-30.801-128.32-30.801
			c-38,0-74.879,7.441-109.598,22.16c-33.52,14.16-63.68,34.481-89.52,60.32c-25.84,25.84-46.16,56-60.32,89.52
			c-11.602,27.359-18.641,56.078-21.121,85.602C49.482,275.761,1.079,298.8-36.6,336.402c-43.52,43.519-67.52,101.437-67.52,162.958
			c0,61.519,24,119.44,67.52,162.883c43.441,43.519,101.359,67.519,162.878,67.519h102.403c14.16,0,25.597-11.44,25.597-25.601
			C254.278,689.999,242.841,678.562,228.681,678.562L228.681,678.562z M228.681,678.562"/>
	</g>
	<path d="M663.88,268.96H356.681c-28.242,0-51.199,22.961-51.199,51.2v409.601c0,28.238,22.957,51.199,51.199,51.199H663.88
		c28.238,0,51.199-22.961,51.199-51.199V320.16C715.079,291.921,692.118,268.96,663.88,268.96L663.88,268.96z M663.88,729.761
		H356.681V627.359H663.88V729.761z M663.88,576.16H356.681V473.761H663.88V576.16z M663.88,422.562H356.681v-102.48v0.079H663.88
		v-0.079V422.562z M663.88,422.562"/>
	<path d="M561.481,371.359c0,14.14,11.461,25.601,25.598,25.601c14.141,0,25.602-11.461,25.602-25.601
		c0-14.137-11.461-25.598-25.602-25.598C572.942,345.761,561.481,357.222,561.481,371.359L561.481,371.359z M561.481,371.359"/>
	<path d="M561.481,524.96c0,14.137,11.461,25.602,25.598,25.602c14.141,0,25.602-11.465,25.602-25.602
		c0-14.14-11.461-25.601-25.602-25.601C572.942,499.359,561.481,510.82,561.481,524.96L561.481,524.96z M561.481,524.96"/>
	<path d="M561.481,678.562c0,14.138,11.461,25.599,25.598,25.599c14.141,0,25.602-11.461,25.602-25.599
		c0-14.141-11.461-25.602-25.602-25.602C572.942,652.96,561.481,664.421,561.481,678.562L561.481,678.562z M561.481,678.562"/>
</g>
</svg>
