<?xml version="1.0" encoding="iso-8859-1"?>
<!-- Generator: Adobe Illustrator 15.0.0, SVG Export Plug-In . SVG Version: 6.00 Build 0)  -->
<!DOCTYPE svg PUBLIC "-//W3C//DTD SVG 1.1//EN" "http://www.w3.org/Graphics/SVG/1.1/DTD/svg11.dtd">
<svg version="1.1" id="&#x56FE;&#x5C42;_1" xmlns="http://www.w3.org/2000/svg" xmlns:xlink="http://www.w3.org/1999/xlink" x="0px"
	 y="0px" width="612px" height="792px" viewBox="0 0 612 792" style="enable-background:new 0 0 612 792;" xml:space="preserve">
<g>
	<g>
		<path d="M87.648,298.297c0.868-50.703,41.602-91.68,92.297-92.844c21.301-0.058,39.004-16.437,40.715-37.672
			c1.711-21.234-13.14-40.234-34.16-43.703h-6.555C83.367,124.07,4.738,201.727,3.543,298.297
			c0.012,10.859,4.332,21.269,12.016,28.945c6.097,6.047,13.921,10.055,22.39,11.469h6.555c11.141,0.594,22.047-3.379,30.187-11.008
			C82.836,320.074,87.516,309.453,87.648,298.297L87.648,298.297z M87.648,298.297"/>
		<path d="M-48.887,282.457c-0.144-56.582,22.231-110.898,62.192-150.961c39.961-40.062,94.218-62.578,150.8-62.574
			c22.622,1.809,42.43-15.063,44.239-37.684C210.152,8.613,193.281-11.191,170.66-13h-6.555
			c-162.96,0.301-294.91,132.496-294.91,295.457c0.008,20.086,14.578,37.203,34.407,40.414h6.554
			C-67.434,322.875-49.184,304.867-48.887,282.457L-48.887,282.457z M585.176,806.199H18.289
			c-41.051-0.39-80.168-17.515-108.309-47.406c-28.14-29.895-42.871-69.969-40.785-110.973
			c-3.507-71.265,43.086-135.359,111.957-154.008c11.094-52.496,45.407-97.121,93.289-121.328
			c47.887-24.207,104.164-25.382,153.016-3.191c42.414-70.781,119.008-113.957,201.523-113.594
			c130.477,0.602,235.934,106.543,235.93,237.02v19.66c60.41,36.599,89.281,108.773,70.785,176.938
			C717.195,757.484,655.797,805.16,585.176,806.199L585.176,806.199z M585.176,806.199"/>
	</g>
</g>
</svg>
