<?xml version="1.0" encoding="iso-8859-1"?>
<!-- Generator: Adobe Illustrator 15.0.0, SVG Export Plug-In . SVG Version: 6.00 Build 0)  -->
<!DOCTYPE svg PUBLIC "-//W3C//DTD SVG 1.1//EN" "http://www.w3.org/Graphics/SVG/1.1/DTD/svg11.dtd">
<svg version="1.1" id="&#x56FE;&#x5C42;_1" xmlns="http://www.w3.org/2000/svg" xmlns:xlink="http://www.w3.org/1999/xlink" x="0px"
	 y="0px" width="612px" height="792px" viewBox="0 0 612 792" style="enable-background:new 0 0 612 792;" xml:space="preserve">
<g>
	<g>
		<defs>
			<rect id="SVGID_1_" x="-117" y="-16" width="844.8" height="824.8"/>
		</defs>
		<clipPath id="SVGID_2_">
			<use xlink:href="#SVGID_1_"  style="overflow:visible;"/>
		</clipPath>
		<path style="clip-path:url(#SVGID_2_);" d="M637.009,109.156L524.021-3.833c-15.766-15.765-40.727-15.765-55.18,0L304.614,160.394
			c-15.765,15.766-15.765,40.727,0,55.18l44.668,44.672l-22.332,22.332l-14.453-14.45c-21.019-21.023-48.609-30.218-74.887-30.218
			c-35.472-28.903-81.457-32.844-107.734-6.571c-26.273,26.278-22.332,72.262,6.57,107.735c0,27.59,9.196,53.867,30.219,74.886
			l14.449,14.454l-22.332,22.332l-44.672-44.668c-15.765-15.766-40.726-15.766-55.179,0l-164.227,164.226
			c-15.765,15.766-15.765,40.731,0,55.18L7.692,738.472c15.766,15.766,40.727,15.766,55.18,0l164.227-164.226
			c15.765-15.767,15.765-40.728,0-55.181l-38.102-38.102l22.336-22.332l49.922,49.922c13.141-30.215,34.16-60.433,60.434-86.711
			c26.277-26.273,56.496-47.297,86.715-60.433l-49.926-49.926l22.336-22.336l38.098,38.101c15.77,15.766,40.73,15.766,55.184,0
			l164.227-164.226c14.449-14.449,14.449-39.414-1.316-53.863v-0.004H637.009z M637.009,109.156"/>
	</g>
	<path d="M598.907,392.937c-2.625-2.625-6.566-5.254-9.195-6.566c0,0-1.316,0-1.316-1.313c-2.629-1.316-3.941-2.629-6.566-3.941
		h-1.316c-64.375-35.477-164.223-10.512-237.797,63.058c-74.887,74.887-98.535,173.426-63.063,237.801
		c1.313,2.629,2.629,3.941,3.942,6.57c0,0,0,1.313,1.312,1.313c2.629,3.941,5.254,6.57,6.571,9.199
		c27.589,18.392,89.339-5.258,155.027-57.809l-32.844-26.277c-39.414,31.531-70.945,48.613-80.141,40.731
		c-11.824-11.825,27.59-70.946,88.023-131.384c60.438-60.438,119.559-99.848,131.383-88.023c7.883,7.879-6.57,35.469-34.16,70.941
		l26.277,32.848C594.97,477.022,617.302,419.214,598.907,392.937L598.907,392.937z M598.907,392.937"/>
	<path d="M441.251,568.988c-10.508-7.884-10.508-22.332-1.313-31.532l3.941-3.941c9.195-9.195,23.648-7.883,31.531,1.316
		l35.473,43.352c7.883,10.512,7.883,26.281-1.316,35.478l11.824-11.825c-9.195,9.196-24.961,10.508-35.473,1.313L441.251,568.988z
		 M441.251,568.988"/>
	<path d="M526.282,586.699c-16.727,0-30.652,13.925-31.586,29.733c0,16.724,13.008,29.731,31.586,29.731
		c16.723,0,31.582-13.008,31.582-29.731C556.946,598.772,543.009,586.699,526.282,586.699L526.282,586.699z M526.282,586.699"/>
	<g>
		<path d="M604.321,586.699c0,27.879-11.156,53.882-32.52,73.39c-20.441,20.442-47.375,30.664-77.121,30.664v42.739
			c85.477,0,153.297-65.953,154.23-146.793H604.321z M604.321,586.699"/>
		<path d="M683.282,585.781c0,98.468-84.543,179.293-188.586,179.293V807.8c128.203,0,233.176-99.402,233.176-222.035h-44.59
			V585.781z M683.282,585.781"/>
	</g>
</g>
</svg>
