<?xml version="1.0" encoding="iso-8859-1"?>
<!-- Generator: Adobe Illustrator 15.0.0, SVG Export Plug-In . SVG Version: 6.00 Build 0)  -->
<!DOCTYPE svg PUBLIC "-//W3C//DTD SVG 1.1//EN" "http://www.w3.org/Graphics/SVG/1.1/DTD/svg11.dtd">
<svg version="1.1" id="&#x56FE;&#x5C42;_1" xmlns="http://www.w3.org/2000/svg" xmlns:xlink="http://www.w3.org/1999/xlink" x="0px"
	 y="0px" width="612px" height="792px" viewBox="0 0 612 792" style="enable-background:new 0 0 612 792;" xml:space="preserve">
<g>
	<path d="M243.027,260.855c0-33.984-38.727-54.136-70.34-31.218c-26.082,19.363-12.25,73.109,28.848,73.109
		c9.09,0,1.184-0.394,8.691-2.371l81.805,103.535c-11.855,8.301-157.281,154.121-161.629,163.207
		c20.945,13.832,33.984,31.219,70.34,48.211c53.352,25.688,77.852,24.504,135.152,24.504c34.772,0,61.647-12.647,88.519-20.551
		c-10.671,15.414-54.14,98.793-69.155,123.692c-5.531,9.483-47.816,63.226,3.555,63.226h294.012
		c10.671,0,23.316-7.902,23.316-18.969c0-11.063-31.613-64.414-38.332-73.5l-95.633-168.742c-15.41-25.688-7.509-11.855,9.484-45.84
		c37.542-74.688,42.68-156.488,8.296-233.945c-8.296-18.574-36.354-65.203-52.953-75.476c-16.198,9.484-62.043,64.808-84.961,82.195
		c-11.065,8.695-77.452,73.898-84.172,84.172c-7.905-7.508-14.621-12.25-22.526-19.758l-74.293-60.066
		C241.051,265.996,243.027,270.34,243.027,260.855L243.027,260.855z M247.77-13c-74.688,0-145.031,27.266-200.75,73.898
		L5.527,101.207c-17.785,21.34-38.727,58.484-49.004,83.777c-19.363,45.84-17.781,58.09-22.523,100.77l0.395,46.629h28.453
		c0-60.461,0.789-93.262,24.895-146.215c8.301-17.781,15.809-28.848,26.082-44.652l49.398-55.329
		c45.445-43.863,118.551-68.363,184.547-68.363V-13z M247.77,17.824"/>
	<path d="M39.906,269.945c1.582-21.34,18.574-55.324,28.453-69.156c4.348-6.32,5.531-9.484,10.273-15.016
		c4.348-5.136,5.93-7.507,10.277-12.644l37.539-35.172c33.59-24.5,82.199-40.309,125.668-40.309V66.824
		c-35.566,0-72.711,9.485-98.004,21.34c-15.414,7.113-24.895,12.648-37.938,21.34c-5.926,3.953-11.461,7.902-16.992,12.645
		c-29.637,24.899-49,47.028-66.785,81.407C5.922,254.93,9.875,284.566,5.527,292.473v39.121h29.637
		C35.164,319.344,32.398,280.617,39.906,269.945L39.906,269.945z M39.906,269.945"/>
	<path d="M211.809,181.426c8.301-4.348,25.688-2.371,39.914-2.371c0-11.461,1.184-22.129-2.371-30.032
		c-48.609-2.371-74.293,10.668-102.352,29.637l-23.316,22.922c-12.25,18.57-22.918,30.426-28.055,56.508
		c-5.93,28.847-5.93,45.84,0.395,74.293h30.824c-3.559-19.758-8.695-34.379-5.141-56.113c3.559-20.551,7.906-30.036,16.598-44.262
		c1.977-3.555,4.348-6.321,6.719-9.485C160.438,204.742,188.887,183.797,211.809,181.426L211.809,181.426z M211.809,181.426"/>
	<path d="M3.156,333.965h34.379l2.371-64.02c-7.508,10.672-4.742,49.399-4.742,61.649H5.527v-39.121L3.156,333.965z
		 M254.094,181.426v-18.574c0.395-15.805-0.395-11.852-4.742-13.829c3.555,7.903,2.371,18.571,2.371,30.032
		c-14.227,0-31.613-1.977-39.914,2.371H254.094z M147,178.66c-7.902,2.371-7.902,4.742-13.039,9.879
		c-5.535,5.531-7.512,5.531-10.277,13.043L147,178.66z M123.684,201.582"/>
</g>
</svg>
